<svg t="1686046768816" class="icon" viewBox="0 0 1024 1024" version="1.1" xmlns="http://www.w3.org/2000/svg" p-id="2558" width="200" height="200"><path d="M1018.783956 356.632039C883.706517 221.535951 703.795976 147.143586 512.248223 147.143586S140.808579 221.517302 5.712491 356.632039a18.630728 18.630728 0 1 0 26.370219 26.370219C160.129333 254.936986 330.659238 184.423691 512.248223 184.423691s352.11889 70.513295 480.165513 198.559918a18.593429 18.593429 0 0 0 26.37022 0 18.612078 18.612078 0 0 0 0-26.35157z" fill="" p-id="2559"></path><path d="M115.33353 466.234428a18.630728 18.630728 0 1 0 26.370219 26.37022c204.303927-204.322576 536.747723-204.322576 741.070299 0A18.630728 18.630728 0 1 0 909.144268 466.234428C690.312476 247.402637 334.20262 247.365338 115.33353 466.234428z" fill="" p-id="2560"></path><path d="M512.248223 457.058935c-108.632622 0-210.644715 42.20354-287.275005 118.815182a18.630728 18.630728 0 1 0 26.370219 26.370219c69.580826-69.562177 162.230932-107.886647 260.904786-107.886647s191.32396 38.32447 260.904786 107.886647a18.593429 18.593429 0 0 0 26.37022 0 18.630728 18.630728 0 0 0 0-26.370219c-76.611641-76.611641-178.642384-118.815182-287.275006-118.815182zM512.248223 632.512275c-67.36155 0-122.17207 54.810519-122.172069 122.190719s54.810519 122.190719 122.172069 122.190719c67.3802 0 122.190719-54.810519 122.190719-122.190719s-54.810519-122.190719-122.190719-122.190719z m0 207.064034c-46.809937 0-84.873315-38.082028-84.873315-84.891964s38.082028-84.891965 84.873315-84.891965 84.891965 38.082028 84.891965 84.891965-38.082028 84.891965-84.891965 84.891964z" fill="" p-id="2561"></path></svg>